<svg xmlns="http://www.w3.org/2000/svg" xmlns:svg="http://www.w3.org/2000/svg" xmlns:xlink="http://www.w3.org/1999/xlink" id="svg8" width="256" height="256" version="1.1" viewBox="0 0 67.733 67.733"><defs id="defs2"><linearGradient id="linearGradient1159" x1="28" x2="116" y1="-276" y2="-276" gradientTransform="matrix(0.67798714,0,0,0.52916666,6.5899031,-124.84283)" gradientUnits="userSpaceOnUse" xlink:href="#linearGradient1038"/><linearGradient id="linearGradient1038"><stop style="stop-color:#c0bfbc;stop-opacity:1" id="stop1026" offset="0"/><stop id="stop1028" offset=".045" style="stop-color:#fff;stop-opacity:1"/><stop id="stop1030" offset=".091" style="stop-color:#deddda;stop-opacity:1"/><stop id="stop1032" offset=".909" style="stop-color:#deddda;stop-opacity:1"/><stop style="stop-color:#fff;stop-opacity:1" id="stop1034" offset=".955"/><stop style="stop-color:#c0bfbc;stop-opacity:1" id="stop1036" offset="1"/></linearGradient><linearGradient id="linearGradient1130" x1="344" x2="340" y1="76" y2="72" gradientTransform="matrix(0.25,0,0,0.25,180,83)" gradientUnits="userSpaceOnUse" xlink:href="#linearGradient1351-3"/><linearGradient id="linearGradient1351-3"><stop id="stop1347" offset="0" style="stop-color:#d5d3cf;stop-opacity:1"/><stop id="stop1349-6" offset="1" style="stop-color:#fff;stop-opacity:1"/></linearGradient><clipPath id="clipPath1609-7" clipPathUnits="userSpaceOnUse"><path style="fill:#e74747;stroke:none;stroke-width:.25px;stroke-linecap:butt;stroke-linejoin:miter;stroke-opacity:1" id="path1611-5" d="m 252,116 28,-28 v -8 h -36 v 36 z"/></clipPath><clipPath id="clipPath1609-7-9" clipPathUnits="userSpaceOnUse"><path style="fill:#e74747;stroke:none;stroke-width:.25px;stroke-linecap:butt;stroke-linejoin:miter;stroke-opacity:1" id="path1611-5-1" d="m 252,116 28,-28 v -8 h -36 v 36 z"/></clipPath><clipPath id="clipPath1609-7-7" clipPathUnits="userSpaceOnUse"><path id="path1611-5-3" d="m 252,116 28,-28 v -8 h -36 v 36 z" style="fill:#e74747;stroke:none;stroke-width:.25px;stroke-linecap:butt;stroke-linejoin:miter;stroke-opacity:1"/></clipPath></defs><metadata id="metadata5"/><g id="layer1"><circle style="vector-effect:none;fill:#8ff0a4;stroke-width:1.64345;paint-order:fill markers stroke;fill-opacity:1" id="path833" cx="33.867" cy="33.867" r="33.867"/><path id="path833-3" d="m 14.221345,13.493751 c -2.182808,0 -3.63802,1.455201 -3.63802,3.638019 v 33.469793 c 0,2.182818 1.455212,3.63802 3.63802,3.63802 h 22.555734 c 5.820838,0 17.462503,-11.641665 17.462503,-11.641665 2.182818,-2.182818 2.910428,-5.093232 2.910428,-8.731251 0,-3.63802 -0.727654,-6.548444 -2.910428,-8.731251 0,0 -11.641665,-11.641665 -17.462503,-11.641665 z m 8.003656,8.731251 h 8.731251 v 8.731252 h -2.910425 v 2.910413 h 5.820838 v 5.820838 h 2.910414 v 8.731251 h -8.731252 v -8.731251 h 2.910425 v -2.910424 h -8.731251 v 2.910424 h 2.910413 v 8.731251 h -8.731252 v -8.731251 h 2.910415 v -5.820838 h 5.820837 v -2.910413 h -2.910413 z m 26.193753,8.731252 c 1.607365,0 2.910414,1.303049 2.910414,2.910413 0,1.607364 -1.303049,2.910414 -2.910414,2.910414 -1.607363,0 -2.910424,-1.30305 -2.910424,-2.910414 0,-1.607364 1.303061,-2.910413 2.910424,-2.910413 z" style="fill:#3d3846;stroke-width:.26458332"/></g></svg>