<?xml version="1.0" encoding="UTF-8" standalone="no"?>
<svg
   xmlns:dc="http://purl.org/dc/elements/1.1/"
   xmlns:cc="http://creativecommons.org/ns#"
   xmlns:rdf="http://www.w3.org/1999/02/22-rdf-syntax-ns#"
   xmlns:svg="http://www.w3.org/2000/svg"
   xmlns="http://www.w3.org/2000/svg"
   xmlns:sodipodi="http://sodipodi.sourceforge.net/DTD/sodipodi-0.dtd"
   xmlns:inkscape="http://www.inkscape.org/namespaces/inkscape"
   width="16px"
   height="16px"
   viewBox="0 0 16 16"
   version="1.1"
   id="svg5"
   sodipodi:docname="org.gabmus.notorious-symbolic_inkscape.svg"
   inkscape:version="1.0 (4035a4fb49, 2020-05-01)">
  <metadata
     id="metadata11">
    <rdf:RDF>
      <cc:Work
         rdf:about="">
        <dc:format>image/svg+xml</dc:format>
        <dc:type
           rdf:resource="http://purl.org/dc/dcmitype/StillImage" />
        <dc:title />
      </cc:Work>
    </rdf:RDF>
  </metadata>
  <defs
     id="defs9" />
  <sodipodi:namedview
     pagecolor="#ffffff"
     bordercolor="#666666"
     borderopacity="1"
     objecttolerance="10"
     gridtolerance="10"
     guidetolerance="10"
     inkscape:pageopacity="0"
     inkscape:pageshadow="2"
     inkscape:window-width="2560"
     inkscape:window-height="1376"
     id="namedview7"
     showgrid="true"
     inkscape:object-paths="false"
     inkscape:snap-smooth-nodes="true"
     inkscape:zoom="32"
     inkscape:cx="7.8031365"
     inkscape:cy="4.0098057"
     inkscape:window-x="0"
     inkscape:window-y="27"
     inkscape:window-maximized="1"
     inkscape:current-layer="svg5"
     inkscape:document-rotation="0"
     inkscape:snap-page="true"
     inkscape:snap-nodes="false"
     inkscape:snap-bbox="true"
     inkscape:bbox-nodes="true">
    <inkscape:grid
       type="xygrid"
       id="grid818"
       dotted="false"
       spacingx="0.25"
       spacingy="0.25"
       empspacing="4"
       empcolor="#3f3fff"
       empopacity="0.58039216"
       color="#3f3fff"
       opacity="0.0745098" />
  </sodipodi:namedview>
  <path
     id="path4"
     style="line-height:normal;-inkscape-font-specification:Sans;text-indent:0;text-align:start;text-decoration:none;text-decoration-line:none;text-transform:none;fill:#474747;marker:none"
     d="M 3.09375,0 C 2.52475,0 2,0.5025 2,1.0625 v 13.875 C 2,15.4985 2.52475,16 3.09375,16 H 13 c 0.558,0 1.07375,-0.48525 1.09375,-1.03125 V 1.0625 C 14.09375,0.5015 13.569,0 13,0 Z"
     sodipodi:nodetypes="sssssccss" />
  <g
     style="font-size:14.0912px;line-height:1.25;font-family:sans-serif;letter-spacing:0px;word-spacing:0px;fill:#ffffff;stroke-width:1"
     id="text1490"
     aria-label="?">
    <path
       id="path833"
       style="fill:#ffffff;stroke-width:1"
       d="m 6.9369674,11.481516 h 1.3967351 v 1.74764 H 6.9369674 Z M 8.2924197,10.470088 H 6.9782502 V 9.4104954 q 0,-0.6949273 0.1926531,-1.1421578 Q 7.3635564,7.8211072 7.9827986,7.2293868 L 8.6020408,6.6170251 Q 8.9942275,6.2523603 9.1662392,5.9289783 9.3451314,5.6055962 9.3451314,5.2684533 q 0,-0.6123617 -0.4541109,-0.9907875 Q 8.44379,3.89924 7.7006994,3.89924 q -0.543557,0 -1.1627992,0.2408164 Q 5.9255385,4.3808728 5.258133,4.8418642 V 3.5483361 Q 5.9048971,3.1561494 6.565422,2.9634963 7.2328275,2.7708431 7.9415158,2.7708431 q 1.2660062,0 2.0297383,0.6674055 0.7706129,0.6674055 0.7706129,1.7614 0,0.5229156 -0.247697,0.9976679 -0.247697,0.4678719 -0.8669394,1.0595922 L 9.0217494,7.848629 Q 8.6983673,8.1720111 8.560758,8.3577837 8.4300291,8.5366759 8.3749853,8.7086876 8.3337025,8.8531775 8.3130611,9.0595915 8.2924197,9.2660056 8.2924197,9.6237899 Z" />
  </g>
</svg>
