<svg xmlns="http://www.w3.org/2000/svg" xmlns:xlink="http://www.w3.org/1999/xlink" width="128" height="128" enable-background="new" version="1.0" viewBox="0 0 128 128"><title>Adwaita Icon Template</title><defs><clipPath><rect width="16" height="56" x="160" y="-188" fill="none" stroke="#000" enable-background="new" rx="8" ry="8" style="paint-order:normal"/></clipPath><linearGradient id="a" x1="28" x2="116" y1="-276" y2="-276" gradientTransform="translate(-136 170)" gradientUnits="userSpaceOnUse"><stop offset="0" stop-color="#1a5fb4"/><stop offset=".045" stop-color="#3584e4"/><stop offset=".091" stop-color="#1a5fb4"/><stop offset=".909" stop-color="#1a5fb4"/><stop offset=".955" stop-color="#3584e4"/><stop offset="1" stop-color="#1a5fb4"/></linearGradient><clipPath><rect width="192" height="152"/></clipPath></defs><rect width="88" height="40" x="-108" y="-122" fill="url(#a)" rx="8" ry="8" transform="scale(-1)" style="paint-order:normal"/><g display="none"><g display="inline" transform="translate(0,-172)"><rect width="128" height="128" x="0" y="172" fill="#f0f0f0" display="inline" enable-background="accumulate"/><g fill="none"><g stroke="#000" stroke-dasharray=".99 .99" stroke-width=".99"><circle cx="64" cy="236" r="59.504" display="inline" enable-background="new" opacity=".1" style="paint-order:normal"/><rect width="87.01" height="111.01" x="20.495" y="180.49" display="inline" enable-background="new" opacity=".1" rx="8.701" ry="7.929" style="paint-order:normal"/><rect width="103.01" height="103.01" x="12.495" y="184.5" display="inline" enable-background="new" opacity=".1" rx="7.924" ry="7.924" style="paint-order:normal"/><rect width="111.01" height="87.01" x="8.495" y="200.49" display="inline" enable-background="new" opacity=".1" rx="7.929" ry="8.701" style="paint-order:normal"/></g><path stroke="#62a0ea" stroke-width="2" d="m2.6203e-5 289h128" display="inline" enable-background="new"/></g></g></g><rect width="88" height="108" x="-108" y="-116" fill="#241f31" rx="8" ry="8" transform="scale(-1)" style="paint-order:normal"/><path fill="#3d3846" d="m23 34.145v30.82h82v-30.82z" style="paint-order:fill markers stroke"/><path fill="#3584e4" d="m27.047 10.73c-2.8053 0-5.0162 2.2109-5.0162 5.0162v18.399h83.937v-18.399c0-2.8053-2.2109-5.0162-5.0162-5.0162z" style="paint-order:fill markers stroke"/><path fill="#3584e4" d="m-100.1-116c-4.3506 0-7.9004 3.5497-7.9004 7.9004v92.199c0 4.3507 3.5497 7.9004 7.9004 7.9004h72.199c4.3507 0 7.9004-3.5497 7.9004-7.9004v-92.199c0-4.3506-3.5497-7.9004-7.9004-7.9004h-72.199zm0 3h72.199c2.7405 0 4.9004 2.1598 4.9004 4.9004v92.199c0 2.7405-2.1598 4.9004-4.9004 4.9004h-72.199c-2.7406 0-4.9004-2.1598-4.9004-4.9004v-92.199c0-2.7406 2.1598-4.9004 4.9004-4.9004z" color="#000" color-rendering="auto" dominant-baseline="auto" enable-background="accumulate" image-rendering="auto" shape-rendering="auto" solid-color="#000000" stop-color="#000" transform="scale(-1)" style="font-feature-settings:normal;font-variant-alternates:normal;font-variant-caps:normal;font-variant-east-asian:normal;font-variant-ligatures:normal;font-variant-numeric:normal;font-variant-position:normal;font-variation-settings:normal;inline-size:0;isolation:auto;mix-blend-mode:normal;paint-order:normal;shape-margin:0;shape-padding:0;text-decoration-color:#000;text-decoration-line:none;text-decoration-style:solid;text-indent:0;text-orientation:mixed;text-transform:none;white-space:normal"/><path fill="#f6f5f4" d="m32.764 14.875a1.7384 1.7384 0 0 0-1.2111 2.9814l4.5663 4.5663-4.5663 4.5663a1.7384 1.7384 0 1 0 2.457 2.457l5.7948-5.7948a1.7384 1.7384 0 0 0 0-2.457l-5.7948-5.7948a1.7384 1.7384 0 0 0-1.2459-0.52443z" color="#bebebe" font-family="sans-serif" font-weight="400" overflow="visible" style="font-feature-settings:normal;font-variant-alternates:normal;font-variant-caps:normal;font-variant-ligatures:normal;font-variant-numeric:normal;font-variant-position:normal;isolation:auto;mix-blend-mode:normal;shape-padding:0;text-decoration-color:#000;text-decoration-line:none;text-decoration-style:solid;text-indent:0;text-orientation:mixed;text-transform:none"/><path fill="#fff" d="m27.717 72.145v4h32.566v-4zm0 8v4h66.566v-4zm0 8v4h52.566v-4zm0 8v4h60.566v-4z" opacity=".3"/></svg>