<?xml version="1.0" encoding="UTF-8" standalone="no"?>
<svg
   xmlns:dc="http://purl.org/dc/elements/1.1/"
   xmlns:cc="http://creativecommons.org/ns#"
   xmlns:rdf="http://www.w3.org/1999/02/22-rdf-syntax-ns#"
   xmlns:svg="http://www.w3.org/2000/svg"
   xmlns="http://www.w3.org/2000/svg"
   xmlns:sodipodi="http://sodipodi.sourceforge.net/DTD/sodipodi-0.dtd"
   xmlns:inkscape="http://www.inkscape.org/namespaces/inkscape"
   inkscape:version="1.0 (4035a4fb49, 2020-05-01)"
   sodipodi:docname="code.svg"
   id="svg4"
   viewBox="0 0 128 128"
   version="1.1"
   height="128"
   width="128">
  <metadata
     id="metadata10">
    <rdf:RDF>
      <cc:Work
         rdf:about="">
        <dc:format>image/svg+xml</dc:format>
        <dc:type
           rdf:resource="http://purl.org/dc/dcmitype/StillImage" />
      </cc:Work>
    </rdf:RDF>
  </metadata>
  <defs
     id="defs8" />
  <sodipodi:namedview
     inkscape:current-layer="svg4"
     inkscape:window-maximized="1"
     inkscape:window-y="27"
     inkscape:window-x="0"
     inkscape:cy="91.206549"
     inkscape:cx="75.623763"
     inkscape:zoom="2.8339514"
     showgrid="false"
     id="namedview6"
     inkscape:window-height="1376"
     inkscape:window-width="2560"
     inkscape:pageshadow="2"
     inkscape:pageopacity="0"
     guidetolerance="10"
     gridtolerance="10"
     objecttolerance="10"
     borderopacity="1"
     bordercolor="#666666"
     pagecolor="#ffffff" />
  <rect
     rx="20"
     style="fill:#3584e4;stroke-width:3;stroke-dashoffset:50;paint-order:fill markers stroke"
     id="rect835"
     width="128"
     height="128"
     x="-4.7045899e-07"
     y="-3.6901855e-07"
     ry="20" />
  <path
     style="fill:#ffffff"
     id="path2"
     stroke-width="6.0952"
     fill="#555555"
     d="M 37.678594,61.380832 H 79.583602 V 71.856656 H 37.678594 V 61.380832 M 48.154416,103.28584 H 27.201912 V 19.475825 H 63.869009 V 45.66624 H 90.059424 V 61.904195 L 100.53525,51.428373 V 40.428328 L 69.10692,9.0000025 H 27.201912 A 10.475822,10.475822 0 0 0 16.72609,19.475825 v 83.810015 a 10.475822,10.475822 0 0 0 10.475822,10.47582 H 48.154416 V 103.28584 M 37.678594,92.810017 H 59.15446 l 4.714291,-4.714291 v -5.76196 H 37.678336 V 92.809588 M 101.58343,66.619174 c 0.52381,0 1.57146,0.523809 2.09525,1.047582 l 6.80954,6.809543 c 1.04759,1.047582 1.04759,3.142832 0,4.190501 l -5.23808,5.238083 -11.000042,-11.000043 5.23808,-5.238084 c 0.523812,-0.523808 1.047582,-1.047582 2.095252,-1.047582 m 0,20.428282 L 69.630883,119 H 58.63084 V 107.99996 L 90.583387,76.047414 Z" />
</svg>
